<svg width="80" height="80" viewBox="0 0 80 80" fill="none" xmlns="http://www.w3.org/2000/svg">
<path d="M25.6438 80C26.8859 80 28.3385 79.2768 29.7385 77.9555C30.2858 77.4409 30.77 76.8846 31.2437 76.3421C33.2647 74.0056 35.5594 71.363 45.2645 70.9458C51.0013 70.6954 59.3485 69.4437 66.5274 64.7983C70.2536 62.3922 73.2536 59.3185 75.4641 55.6606C78.0009 51.4465 79.4956 46.4117 79.9061 40.7093C80.6955 29.8331 76.4956 19.9722 67.7589 12.1975C60.959 6.14743 51.696 1.76634 42.9804 0.486787C40.7278 0.15299 38.8752 0 37.1383 0C32.2647 0 27.8859 1.26565 22.0439 4.35327C19.0544 5.9388 13.2966 9.49931 8.33881 15.5633C3.2231 21.822 0.43367 28.9152 0.044203 36.6203C-0.818941 53.8248 11.1388 66.0362 20.107 67.2184C21.507 67.3992 23.307 67.9555 23.8754 69.541C24.5175 71.3213 23.6333 74.0612 23.2544 74.7983C22.707 75.8832 22.6333 77.1488 23.0544 78.1919C23.5175 79.3463 24.4649 80 25.6438 80Z" fill="black"/>
<path d="M42.7909 2.78146C58.0012 5.00677 79.7798 18.1778 78.1693 40.5005C76.5588 62.8232 57.6644 68.1222 45.2014 68.6507C32.7384 69.1792 31.5279 73.4351 28.7174 76.0916C25.907 78.7481 23.8965 77.6911 24.6965 76.0916C25.4964 74.4922 28.3174 65.9943 20.2755 64.9372C12.2335 63.8802 0.98105 52.7258 1.78104 36.787C2.59155 20.8343 14.6545 10.7509 22.6965 6.49495C30.7279 2.25295 35.5594 1.71053 42.7909 2.78146Z" fill="white"/>
<path d="M31.168 17.416L30.544 20.92C36.304 21.976 44.512 23.032 49.264 23.464L49.744 19.912C45.232 19.624 36.256 18.52 31.168 17.416ZM50.656 31L48.448 28.312C47.968 28.504 46.96 28.744 46.192 28.84C42.64 29.32 31.696 30.04 28.96 30.088C27.424 30.088 26.08 30.04 24.976 29.944L25.312 34.216C26.32 34.072 27.52 33.928 29.104 33.784C31.984 33.544 39.76 32.824 43.504 32.632C38.848 37.288 26.032 50.008 24.208 51.88C23.248 52.792 22.384 53.56 21.808 53.992L25.504 56.536C28.144 53.128 33.28 47.752 35.008 46.072C36.112 45.016 37.216 44.392 38.512 44.392C39.808 44.392 40.816 45.256 41.344 46.888C41.776 48.232 42.496 51.016 42.976 52.456C43.984 55.576 46.336 56.44 50.128 56.44C52.624 56.44 56.944 56.104 58.96 55.768L59.2 51.736C56.944 52.312 53.392 52.696 50.32 52.696C47.872 52.696 46.816 51.976 46.24 50.152C45.76 48.664 45.088 46.264 44.656 44.92C44.032 42.952 42.928 41.704 41.056 41.512C40.576 41.416 39.712 41.368 39.232 41.416C40.96 39.592 46.288 34.744 48.064 33.112C48.64 32.584 49.792 31.624 50.656 31Z" fill="black"/>
</svg>
