<svg width="185" height="101" viewBox="0 0 185 101" fill="none" xmlns="http://www.w3.org/2000/svg">
<path d="M44.8766 80C47.0503 80 49.5923 79.2768 52.0423 77.9555C53.0002 77.4409 53.8475 76.8846 54.6765 76.3421C58.2133 74.0056 62.229 71.363 79.2129 70.9458C89.2522 70.6954 103.86 69.4437 116.423 64.7983C122.944 62.3922 128.194 59.3185 132.062 55.6606C136.501 51.4465 139.117 46.4117 139.836 40.7093C141.217 29.8331 133.867 19.9722 118.578 12.1975C106.678 6.14743 90.468 1.76634 75.2156 0.486787C71.2736 0.15299 68.0315 0 64.9921 0C56.4633 0 48.8003 1.26565 38.5767 4.35327C33.3452 5.9388 23.2691 9.49931 14.5929 15.5633C5.64042 21.822 0.758916 28.9152 0.0773481 36.6203C-1.43315 53.8248 19.4928 66.0362 35.1873 67.2184C37.6373 67.3992 40.7872 67.9555 41.7819 69.541C42.9056 71.3213 41.3583 74.0612 40.6951 74.7983C39.7372 75.8832 39.6083 77.1488 40.3451 78.1919C41.1556 79.3463 42.8135 80 44.8766 80Z" fill="black"/>
<path d="M74.8841 2.78146C101.502 5.00677 139.615 18.1778 136.796 40.5005C133.978 62.8232 100.913 68.1222 79.1024 68.6507C57.2923 69.1792 55.1739 73.4351 50.2555 76.0916C45.3372 78.7481 41.8188 77.6911 43.2188 76.0916C44.6188 74.4922 49.5555 65.9943 35.4821 64.9372C21.4086 63.8802 1.71685 52.7258 3.11682 36.787C4.53522 20.8343 25.6454 10.7509 39.7189 6.49495C53.7739 2.25295 62.229 1.71053 74.8841 2.78146Z" fill="white"/>
<path d="M22.5603 20.36L22.1763 25.496L34.6083 26.408L34.9923 21.224L22.5603 20.36ZM31.6803 47.576C36.7683 38.936 35.3763 29.192 26.2083 29.192C22.8483 29.192 20.1123 29.912 20.1123 29.912L21.4563 34.904C21.4563 34.904 23.1843 34.376 26.2083 34.376C31.3923 34.376 30.0003 45.416 20.2083 52.136L23.4723 56.168C25.0083 55.112 26.4003 53.96 27.6483 52.76C34.0323 50.504 33.8883 60.248 43.1043 54.056L40.9923 49.304C35.6643 52.28 35.6643 48.344 31.6803 47.576ZM56.5094 41.096H76.4774V35.864H56.5094V41.096ZM110.763 27.848C108.747 29 106.971 30.2 105.387 31.448L101.403 20.36H95.8826L101.307 35.432C91.3226 47.432 99.7226 60.632 114.411 54.728L113.211 49.688C101.787 55.208 95.2586 42.536 113.211 32.408L110.763 27.848Z" fill="black"/>
<path d="M75.008 81.392C76.288 80.848 77.472 80.112 78.624 79.12L76.736 76.24C74.08 78.448 71.008 79.088 67.008 79.248L67.328 82.704C68.896 82.704 70.272 82.608 71.552 82.384V85.584H65.536V89.04H71.52C71.328 93.36 70.24 95.28 67.008 96.976L68.448 100.112C72.288 98.064 74.624 95.472 74.976 89.04H80.096V85.584H75.008V81.392ZM99.1768 96.656V84.88H102.761V81.424H92.1688V84.88H95.7208V96.656H91.4648V100.112H103.465V96.656H99.1768ZM116.018 80.56V86.928H119.474V80.56H116.018ZM124.242 80.56H120.786V86.928H124.242V80.56ZM121.49 100.112C127.122 95.152 129.49 89.552 129.49 84.4H126.066C125.81 88.208 124.85 92.656 119.058 97.648L121.49 100.112ZM142.682 100.112C145.53 96.368 146.906 92.272 146.906 85.456V81.424H151.45V92.976C151.45 95.632 150.906 96.656 147.802 96.656V100.112C153.178 100.112 154.906 98.256 154.906 92.272V77.968H146.906V76.24H143.45V77.968H140.154V81.424H143.45V85.456C143.45 91.504 142.33 94.544 139.866 98.096L142.682 100.112ZM165.699 90.064H179.011V86.576H165.699V90.064Z" fill="black"/>
</svg>
